# Blender 3.1.0
# www.blender.org
mtllib flowerpot1.mtl
o Cube
v -0.321112 -0.768897 0.779762
v -0.779762 -0.768897 0.321112
v -0.496630 -0.768897 0.744849
v -0.645426 -0.768897 0.645426
v -0.744849 -0.768897 0.496630
v -0.994615 0.768897 0.409591
v -0.409591 0.768897 0.994615
v -0.950083 0.768897 0.633470
v -0.823266 0.768897 0.823266
v -0.633470 0.768897 0.950083
v -0.779762 -0.768897 -0.321112
v -0.321112 -0.768897 -0.779762
v -0.744849 -0.768897 -0.496630
v -0.645426 -0.768897 -0.645426
v -0.496630 -0.768897 -0.744849
v -0.409591 0.768897 -0.994615
v -0.994615 0.768897 -0.409591
v -0.633470 0.768897 -0.950083
v -0.823266 0.768897 -0.823266
v -0.950083 0.768897 -0.633470
v 0.779762 -0.768897 0.321112
v 0.321112 -0.768897 0.779762
v 0.744849 -0.768897 0.496630
v 0.645426 -0.768897 0.645426
v 0.496630 -0.768897 0.744849
v 0.409591 0.768897 0.994615
v 0.994615 0.768897 0.409591
v 0.633470 0.768897 0.950083
v 0.823266 0.768897 0.823266
v 0.950083 0.768897 0.633470
v 0.321112 -0.768897 -0.779762
v 0.779762 -0.768897 -0.321112
v 0.496630 -0.768897 -0.744849
v 0.645426 -0.768897 -0.645426
v 0.744849 -0.768897 -0.496630
v 0.994615 0.768897 -0.409591
v 0.409591 0.768897 -0.994615
v 0.950083 0.768897 -0.633470
v 0.823266 0.768897 -0.823266
v 0.633470 0.768897 -0.950083
v -0.434086 0.829427 1.054098
v -0.671354 0.829427 1.006902
v -0.872501 0.829427 0.872501
v -1.006902 0.829427 0.671354
v -1.054098 0.829427 0.434086
v -0.671354 0.829427 -1.006902
v -0.434086 0.829427 -1.054098
v -0.872501 0.829427 -0.872501
v -1.006902 0.829427 -0.671354
v -1.054098 0.829427 -0.434086
v 1.006902 0.829427 -0.671354
v 1.054098 0.829427 -0.434086
v 0.872501 0.829427 -0.872501
v 0.671354 0.829427 -1.006902
v 0.434086 0.829427 -1.054098
v 0.671354 0.829427 1.006902
v 0.434086 0.829427 1.054098
v 0.872501 0.829427 0.872501
v 1.006902 0.829427 0.671354
v 1.054098 0.829427 0.434086
v -0.472149 0.958115 1.146528
v -0.730223 0.958115 1.095194
v -0.949007 0.958115 0.949007
v -1.095194 0.958115 0.730223
v -1.146528 0.958115 0.472149
v -0.730223 0.958115 -1.095194
v -0.472149 0.958115 -1.146528
v -0.949007 0.958115 -0.949007
v -1.095194 0.958115 -0.730223
v -1.146528 0.958115 -0.472149
v 1.095194 0.958115 -0.730223
v 1.146528 0.958115 -0.472149
v 0.949007 0.958115 -0.949007
v 0.730223 0.958115 -1.095194
v 0.472149 0.958115 -1.146528
v 0.730223 0.958115 1.095194
v 0.472149 0.958115 1.146528
v 0.949007 0.958115 0.949007
v 1.095194 0.958115 0.730223
v 1.146528 0.958115 0.472149
v -0.391834 0.958115 0.951497
v -0.606008 0.958115 0.908895
v -0.787576 0.958115 0.787576
v -0.908895 0.958115 0.606008
v -0.951497 0.958115 0.391834
v -0.606008 0.958115 -0.908895
v -0.391834 0.958115 -0.951497
v -0.787576 0.958115 -0.787576
v -0.908895 0.958115 -0.606008
v -0.951497 0.958115 -0.391834
v 0.908895 0.958115 -0.606008
v 0.951497 0.958115 -0.391834
v 0.787576 0.958115 -0.787576
v 0.606008 0.958115 -0.908895
v 0.391834 0.958115 -0.951497
v 0.606008 0.958115 0.908895
v 0.391834 0.958115 0.951497
v 0.787576 0.958115 0.787576
v 0.908895 0.958115 0.606008
v 0.951497 0.958115 0.391834
v -0.360245 0.747281 0.874790
v -0.557153 0.747281 0.835623
v -0.724083 0.747281 0.724083
v -0.835623 0.747281 0.557153
v -0.874790 0.747281 0.360246
v -0.557153 0.747281 -0.835623
v -0.360245 0.747281 -0.874790
v -0.724083 0.747281 -0.724083
v -0.835623 0.747281 -0.557153
v -0.874790 0.747281 -0.360246
v 0.835623 0.747281 -0.557153
v 0.874790 0.747281 -0.360246
v 0.724083 0.747281 -0.724083
v 0.557153 0.747281 -0.835623
v 0.360246 0.747281 -0.874790
v 0.557153 0.747281 0.835623
v 0.360246 0.747281 0.874790
v 0.724083 0.747281 0.724083
v 0.835623 0.747281 0.557153
v 0.874790 0.747281 0.360246
v -0.472149 1.102187 1.146528
v -0.730223 1.102187 1.095194
v -0.949007 1.102187 0.949007
v -1.095194 1.102187 0.730223
v -1.146528 1.102187 0.472149
v -0.730223 1.102187 -1.095194
v -0.472149 1.102187 -1.146528
v -0.949007 1.102187 -0.949007
v -1.095194 1.102187 -0.730223
v -1.146528 1.102187 -0.472149
v 1.095194 1.102187 -0.730223
v 1.146528 1.102187 -0.472149
v 0.949007 1.102187 -0.949007
v 0.730223 1.102187 -1.095194
v 0.472149 1.102187 -1.146528
v 0.730223 1.102187 1.095194
v 0.472149 1.102187 1.146528
v 0.949007 1.102187 0.949007
v 1.095194 1.102187 0.730223
v 1.146528 1.102187 0.472149
v -0.391834 1.102187 0.951497
v -0.606008 1.102187 0.908895
v -0.787576 1.102187 0.787576
v -0.908895 1.102187 0.606008
v -0.951497 1.102187 0.391834
v -0.606008 1.102187 -0.908895
v -0.391834 1.102187 -0.951497
v -0.787576 1.102187 -0.787576
v -0.908895 1.102187 -0.606008
v -0.951497 1.102187 -0.391834
v 0.908895 1.102187 -0.606008
v 0.951497 1.102187 -0.391834
v 0.787576 1.102187 -0.787576
v 0.606008 1.102187 -0.908895
v 0.391834 1.102187 -0.951497
v 0.606008 1.102187 0.908895
v 0.391834 1.102187 0.951497
v 0.787576 1.102187 0.787576
v 0.908895 1.102187 0.606008
v 0.951497 1.102187 0.391834
vn -0.0000 -0.0826 0.9889
vn 0.9889 -0.0826 -0.0000
vn -0.1511 -0.4826 0.7595
vn -0.9889 -0.0826 -0.0000
vn -0.0000 -0.0826 -0.9889
vn -0.1928 -0.0876 0.9692
vn -0.5484 -0.0946 0.8207
vn -0.8207 -0.0946 0.5484
vn -0.9692 -0.0876 0.1928
vn -0.1928 -0.0876 -0.9692
vn -0.5484 -0.0946 -0.8207
vn -0.8207 -0.0946 -0.5484
vn -0.9692 -0.0876 -0.1928
vn 0.9692 -0.0876 -0.1928
vn 0.8207 -0.0946 -0.5484
vn 0.5484 -0.0946 -0.8207
vn 0.1928 -0.0876 -0.9692
vn 0.1928 -0.0876 0.9692
vn 0.5484 -0.0946 0.8207
vn 0.8207 -0.0946 0.5484
vn 0.9692 -0.0876 0.1928
vn -0.0000 -0.7689 -0.0000
vn -0.8696 -0.3733 -0.0000
vn 0.1511 -0.4826 0.7595
vn -0.4164 -0.5054 -0.6232
vn 0.4164 -0.5054 -0.6232
vn -0.7595 -0.4826 0.1511
vn 0.7595 -0.4826 -0.1511
vn -0.7920 -0.4651 -0.0000
vn 0.7595 -0.4826 0.1511
vn -0.4164 -0.5054 0.6232
vn -0.0000 -0.4651 0.7920
vn -0.6232 -0.5054 -0.4164
vn -0.1511 -0.4826 -0.7595
vn 0.4164 -0.5054 0.6232
vn 0.7920 -0.4651 -0.0000
vn 0.1511 -0.4826 -0.7595
vn -0.0000 -0.4651 -0.7920
vn 0.6232 -0.5054 -0.4164
vn -0.6232 -0.5054 0.4164
vn -0.7595 -0.4826 -0.1511
vn 0.6232 -0.5054 0.4164
vn -0.9946 -0.0000 -0.0000
vn 0.6974 -0.4133 -0.4660
vn -0.6974 -0.4133 0.4660
vn -0.0000 -0.3733 0.8696
vn 0.4660 -0.4133 -0.6974
vn -0.8405 -0.3903 0.1672
vn 0.8696 -0.3733 -0.0000
vn 0.1672 -0.3903 -0.8405
vn -0.1672 -0.3903 -0.8405
vn -0.0000 -0.3733 -0.8696
vn 0.1672 -0.3903 0.8405
vn -0.4660 -0.4133 -0.6974
vn 0.4660 -0.4133 0.6974
vn -0.6974 -0.4133 -0.4660
vn 0.6974 -0.4133 0.4660
vn -0.8405 -0.3903 -0.1672
vn -0.1672 -0.3903 0.8405
vn 0.8405 -0.3903 0.1672
vn 0.8405 -0.3903 -0.1672
vn -0.4660 -0.4133 0.6974
vn -0.5258 0.2363 0.7870
vn 0.9946 -0.0000 -0.0000
vn -0.8270 -0.0000 0.5526
vn 0.8270 -0.0000 -0.5526
vn 0.9755 -0.0000 0.1940
vn -0.9755 -0.0000 -0.1940
vn -0.5526 -0.0000 0.8270
vn 0.5526 -0.0000 -0.8270
vn 0.8270 -0.0000 0.5526
vn -0.8270 -0.0000 -0.5526
vn -0.1940 -0.0000 0.9755
vn 0.1940 -0.0000 -0.9755
vn 0.5526 -0.0000 0.8270
vn -0.5526 -0.0000 -0.8270
vn 0.1940 -0.0000 0.9755
vn -0.1940 -0.0000 -0.9755
vn -0.0000 0.7689 -0.0000
vn 0.9348 0.2199 -0.1859
vn -0.9575 0.2082 -0.0000
vn -0.1859 0.2199 0.9348
vn 0.1859 0.2199 0.9348
vn -0.0000 0.2082 0.9575
vn -0.1859 0.2199 -0.9348
vn 0.5258 0.2363 0.7870
vn -0.5258 0.2363 -0.7870
vn 0.7870 0.2363 0.5258
vn -0.7870 0.2363 -0.5258
vn 0.9348 0.2199 0.1859
vn 0.1859 0.2199 -0.9348
vn -0.9348 0.2199 -0.1859
vn -0.9348 0.2199 0.1859
vn 0.5258 0.2363 -0.7870
vn 0.9575 0.2082 -0.0000
vn -0.7870 0.2363 0.5258
vn 0.7870 0.2363 -0.5258
vn -0.0000 0.2082 -0.9575
vn 0.9755 -0.0000 -0.1940
vn -0.9755 -0.0000 0.1940
vn -0.0000 -0.0000 -0.9946
vn -0.0000 -0.0000 0.9946
vt 0.375000 0.926476
vt 0.198524 0.750000
vt 0.375000 0.073524
vt 0.125000 0.676476
vt 0.375000 0.954612
vt 0.170388 0.744403
vt 0.375000 1.000000
vt 0.375000 0.000000
vt 0.146535 0.728465
vt 0.375000 0.045388
vt 0.130597 0.704612
vt 0.625000 0.073524
vt 0.625000 0.926476
vt 0.625000 0.045388
vt 0.625000 1.000000
vt 0.625000 0.000000
vt 0.625000 0.954612
vt 0.375000 0.176476
vt 0.125000 0.573524
vt 0.375000 0.323524
vt 0.198524 0.500000
vt 0.375000 0.204612
vt 0.130597 0.545388
vt 0.375000 0.250000
vt 0.146535 0.521535
vt 0.375000 0.295388
vt 0.170388 0.505597
vt 0.625000 0.323524
vt 0.625000 0.176476
vt 0.625000 0.295388
vt 0.625000 0.250000
vt 0.625000 0.204612
vt 0.375000 0.676476
vt 0.375000 0.823524
vt 0.301476 0.750000
vt 0.375000 0.704612
vt 0.369403 0.704612
vt 0.375000 0.750000
vt 0.353465 0.728465
vt 0.375000 0.795388
vt 0.329612 0.744403
vt 0.625000 0.823524
vt 0.625000 0.676476
vt 0.625000 0.795388
vt 0.625000 0.750000
vt 0.625000 0.704612
vt 0.375000 0.426476
vt 0.301476 0.500000
vt 0.375000 0.573524
vt 0.375000 0.454612
vt 0.329612 0.505597
vt 0.375000 0.500000
vt 0.353465 0.521535
vt 0.375000 0.545388
vt 0.369403 0.545388
vt 0.625000 0.573524
vt 0.625000 0.426476
vt 0.625000 0.545388
vt 0.625000 0.500000
vt 0.625000 0.454612
vt 0.625000 0.926476
vt 0.625000 0.954612
vt 0.625000 0.000000
vt 0.625000 1.000000
vt 0.625000 0.045388
vt 0.625000 0.073524
vt 0.625000 0.295388
vt 0.625000 0.323524
vt 0.625000 0.250000
vt 0.625000 0.204612
vt 0.625000 0.176476
vt 0.625000 0.545388
vt 0.625000 0.573524
vt 0.625000 0.500000
vt 0.625000 0.454612
vt 0.625000 0.426476
vt 0.625000 0.795388
vt 0.625000 0.823524
vt 0.625000 0.750000
vt 0.625000 0.704612
vt 0.625000 0.676476
vt 0.625000 0.926476
vt 0.625000 0.954612
vt 0.625000 0.000000
vt 0.625000 1.000000
vt 0.625000 0.045388
vt 0.625000 0.073524
vt 0.625000 0.295388
vt 0.625000 0.323524
vt 0.625000 0.250000
vt 0.625000 0.204612
vt 0.625000 0.176476
vt 0.625000 0.545388
vt 0.625000 0.573524
vt 0.625000 0.500000
vt 0.625000 0.454612
vt 0.625000 0.426476
vt 0.625000 0.795388
vt 0.625000 0.823524
vt 0.625000 0.750000
vt 0.625000 0.704612
vt 0.625000 0.676476
vt 0.625000 0.926476
vt 0.625000 0.954612
vt 0.625000 1.000000
vt 0.625000 0.000000
vt 0.625000 0.045388
vt 0.625000 0.073524
vt 0.625000 0.295388
vt 0.625000 0.323524
vt 0.625000 0.250000
vt 0.625000 0.204612
vt 0.625000 0.176476
vt 0.625000 0.545388
vt 0.625000 0.573524
vt 0.625000 0.500000
vt 0.625000 0.454612
vt 0.625000 0.426476
vt 0.625000 0.795388
vt 0.625000 0.823524
vt 0.625000 0.750000
vt 0.625000 0.704612
vt 0.625000 0.676476
vt 0.801476 0.750000
vt 0.625000 0.926476
vt 0.829612 0.744403
vt 0.625000 0.954612
vt 0.853465 0.728465
vt 0.625000 1.000000
vt 0.625000 0.000000
vt 0.869403 0.704612
vt 0.625000 0.045388
vt 0.875000 0.676476
vt 0.625000 0.073524
vt 0.829612 0.505597
vt 0.625000 0.295388
vt 0.801476 0.500000
vt 0.625000 0.323524
vt 0.853465 0.521535
vt 0.625000 0.250000
vt 0.869403 0.545388
vt 0.625000 0.204612
vt 0.875000 0.573524
vt 0.625000 0.176476
vt 0.630597 0.545388
vt 0.625000 0.545388
vt 0.625000 0.573524
vt 0.646535 0.521535
vt 0.625000 0.500000
vt 0.670388 0.505597
vt 0.625000 0.454612
vt 0.698524 0.500000
vt 0.625000 0.426476
vt 0.670388 0.744403
vt 0.625000 0.795388
vt 0.698524 0.750000
vt 0.625000 0.823524
vt 0.646535 0.728465
vt 0.625000 0.750000
vt 0.630597 0.704612
vt 0.625000 0.704612
vt 0.625000 0.676476
vt 0.625000 0.926476
vt 0.625000 0.954612
vt 0.625000 1.000000
vt 0.625000 0.000000
vt 0.625000 0.045388
vt 0.625000 0.073524
vt 0.625000 0.295388
vt 0.625000 0.323524
vt 0.625000 0.250000
vt 0.625000 0.204612
vt 0.625000 0.176476
vt 0.625000 0.545388
vt 0.625000 0.573524
vt 0.625000 0.500000
vt 0.625000 0.454612
vt 0.625000 0.426476
vt 0.625000 0.795388
vt 0.625000 0.823524
vt 0.625000 0.750000
vt 0.625000 0.704612
vt 0.625000 0.676476
vt 0.625000 0.926476
vt 0.625000 0.954612
vt 0.625000 1.000000
vt 0.625000 0.000000
vt 0.625000 0.045388
vt 0.625000 0.073524
vt 0.625000 0.295388
vt 0.625000 0.323524
vt 0.625000 0.250000
vt 0.625000 0.204612
vt 0.625000 0.176476
vt 0.625000 0.545388
vt 0.625000 0.573524
vt 0.625000 0.500000
vt 0.625000 0.454612
vt 0.625000 0.426476
vt 0.625000 0.795388
vt 0.625000 0.823524
vt 0.625000 0.750000
vt 0.625000 0.704612
vt 0.625000 0.676476
s 0
usemtl Material.001
f 22/34/1 26/42/1 7/13/1 1/1/1
f 32/49/2 36/56/2 27/43/2 21/33/2
f 10/17/3 7/13/3 41/61/3 42/62/3
f 2/3/4 6/12/4 17/29/4 11/18/4
f 12/20/5 16/28/5 37/57/5 31/47/5
f 1/1/6 7/13/6 10/17/6 3/5/6
f 3/5/7 10/17/7 9/15/7 4/7/7
f 4/8/8 9/16/8 8/14/8 5/10/8
f 5/10/9 8/14/9 6/12/9 2/3/9
f 16/28/10 12/20/10 15/26/10 18/30/10
f 18/30/11 15/26/11 14/24/11 19/31/11
f 19/31/12 14/24/12 13/22/12 20/32/12
f 20/32/13 13/22/13 11/18/13 17/29/13
f 36/56/14 32/49/14 35/54/14 38/58/14
f 38/58/15 35/54/15 34/52/15 39/59/15
f 39/59/16 34/52/16 33/50/16 40/60/16
f 40/60/17 33/50/17 31/47/17 37/57/17
f 26/42/18 22/34/18 25/40/18 28/44/18
f 28/44/19 25/40/19 24/38/19 29/45/19
f 29/45/20 24/38/20 23/36/20 30/46/20
f 30/46/21 23/36/21 21/33/21 27/43/21
f 11/19/22 13/23/22 14/25/22 15/27/22 12/21/22 31/48/22 33/51/22 34/53/22 35/55/22 32/49/22 21/33/22 23/37/22 24/39/22 25/41/22 22/35/22 1/2/22 3/6/22 4/9/22 5/11/22 2/4/22
f 50/71/23 45/66/23 65/87/23 70/92/23
f 26/42/24 28/44/24 56/77/24 57/78/24
f 18/30/25 19/31/25 48/69/25 46/67/25
f 39/59/26 40/60/26 54/75/26 53/74/26
f 6/12/27 8/14/27 44/65/27 45/66/27
f 36/56/28 38/58/28 51/72/28 52/73/28
f 17/29/29 6/12/29 45/66/29 50/71/29
f 30/46/30 27/43/30 60/81/30 59/80/30
f 9/15/31 10/17/31 42/62/31 43/64/31
f 7/13/32 26/42/32 57/78/32 41/61/32
f 19/31/33 20/32/33 49/70/33 48/69/33
f 16/28/34 18/30/34 46/67/34 47/68/34
f 28/44/35 29/45/35 58/79/35 56/77/35
f 27/43/36 36/56/36 52/73/36 60/81/36
f 40/60/37 37/57/37 55/76/37 54/75/37
f 37/57/38 16/28/38 47/68/38 55/76/38
f 38/58/39 39/59/39 53/74/39 51/72/39
f 8/14/40 9/16/40 43/63/40 44/65/40
f 20/32/41 17/29/41 50/71/41 49/70/41
f 29/45/42 30/46/42 59/80/42 58/79/42
f 70/92/43 65/87/43 125/168/43 130/173/43
f 51/72/44 53/74/44 73/95/44 71/93/44
f 44/65/45 43/63/45 63/84/45 64/86/45
f 41/61/46 57/78/46 77/99/46 61/82/46
f 53/74/47 54/75/47 74/96/47 73/95/47
f 45/66/48 44/65/48 64/86/48 65/87/48
f 60/81/49 52/73/49 72/94/49 80/102/49
f 54/75/50 55/76/50 75/97/50 74/96/50
f 47/68/51 46/67/51 66/88/51 67/89/51
f 55/76/52 47/68/52 67/89/52 75/97/52
f 57/78/53 56/77/53 76/98/53 77/99/53
f 46/67/54 48/69/54 68/90/54 66/88/54
f 56/77/55 58/79/55 78/100/55 76/98/55
f 48/69/56 49/70/56 69/91/56 68/90/56
f 58/79/57 59/80/57 79/101/57 78/100/57
f 49/70/58 50/71/58 70/92/58 69/91/58
f 42/62/59 41/61/59 61/82/59 62/83/59
f 59/80/60 60/81/60 80/102/60 79/101/60
f 52/73/61 51/72/61 71/93/61 72/94/61
f 43/64/62 42/62/62 62/83/62 63/85/62
f 93/116/63 94/117/63 114/151/63 113/149/63
f 85/108/64 90/113/64 150/194/64 145/189/64
f 64/86/65 63/84/65 123/166/65 124/167/65
f 83/106/66 84/107/66 144/188/66 143/187/66
f 79/101/67 80/102/67 140/183/67 139/182/67
f 100/123/68 99/122/68 159/203/68 160/204/68
f 63/85/69 62/83/69 122/164/69 123/165/69
f 82/104/70 83/105/70 143/186/70 142/185/70
f 78/100/71 79/101/71 139/182/71 138/181/71
f 99/122/72 98/121/72 158/202/72 159/203/72
f 62/83/73 61/82/73 121/163/73 122/164/73
f 81/103/74 82/104/74 142/185/74 141/184/74
f 76/98/75 78/100/75 138/181/75 136/179/75
f 98/121/76 96/119/76 156/200/76 158/202/76
f 77/99/77 76/98/77 136/179/77 137/180/77
f 96/119/78 97/120/78 157/201/78 156/200/78
f 74/96/74 75/97/74 135/178/74 134/177/74
f 95/118/73 94/117/73 154/198/73 155/199/73
f 73/95/70 74/96/70 134/177/70 133/176/70
f 94/117/69 93/116/69 153/197/69 154/198/69
f 112/147/79 111/145/79 113/148/79 114/150/79 115/152/79 107/137/79 106/135/79 108/139/79 109/141/79 110/143/79 105/133/79 104/131/79 103/128/79 102/126/79 101/124/79 117/156/79 116/154/79 118/158/79 119/160/79 120/162/79
f 85/108/80 84/107/80 104/132/80 105/134/80
f 100/123/81 92/115/81 112/147/81 120/162/81
f 94/117/82 95/118/82 115/153/82 114/151/82
f 87/110/83 86/109/83 106/136/83 107/138/83
f 95/118/84 87/110/84 107/138/84 115/153/84
f 97/120/85 96/119/85 116/155/85 117/157/85
f 86/109/86 88/111/86 108/140/86 106/136/86
f 96/119/87 98/121/87 118/159/87 116/155/87
f 88/111/88 89/112/88 109/142/88 108/140/88
f 98/121/89 99/122/89 119/161/89 118/159/89
f 89/112/90 90/113/90 110/144/90 109/142/90
f 82/104/91 81/103/91 101/125/91 102/127/91
f 99/122/92 100/123/92 120/162/92 119/161/92
f 92/115/93 91/114/93 111/146/93 112/147/93
f 83/105/94 82/104/94 102/127/94 103/129/94
f 90/113/95 85/108/95 105/134/95 110/144/95
f 91/114/96 93/116/96 113/149/96 111/146/96
f 84/107/97 83/106/97 103/130/97 104/132/97
f 81/103/98 97/120/98 117/157/98 101/125/98
f 136/179/79 138/181/79 158/202/79 156/200/79
f 128/171/79 129/172/79 149/193/79 148/192/79
f 138/181/79 139/182/79 159/203/79 158/202/79
f 129/172/79 130/173/79 150/194/79 149/193/79
f 122/164/79 121/163/79 141/184/79 142/185/79
f 139/182/79 140/183/79 160/204/79 159/203/79
f 132/175/79 131/174/79 151/195/79 152/196/79
f 123/165/79 122/164/79 142/185/79 143/186/79
f 130/173/79 125/168/79 145/189/79 150/194/79
f 131/174/79 133/176/79 153/197/79 151/195/79
f 124/167/79 123/166/79 143/187/79 144/188/79
f 121/163/79 137/180/79 157/201/79 141/184/79
f 133/176/79 134/177/79 154/198/79 153/197/79
f 125/168/79 124/167/79 144/188/79 145/189/79
f 140/183/79 132/175/79 152/196/79 160/204/79
f 134/177/79 135/178/79 155/199/79 154/198/79
f 127/170/79 126/169/79 146/190/79 147/191/79
f 135/178/79 127/170/79 147/191/79 155/199/79
f 137/180/79 136/179/79 156/200/79 157/201/79
f 126/169/79 128/171/79 148/192/79 146/190/79
f 84/107/99 85/108/99 145/189/99 144/188/99
f 65/87/100 64/86/100 124/167/100 125/168/100
f 97/120/101 81/103/101 141/184/101 157/201/101
f 61/82/102 77/99/102 137/180/102 121/163/102
f 86/109/77 87/110/77 147/191/77 146/190/77
f 67/89/78 66/88/78 126/169/78 127/170/78
f 92/115/43 100/123/43 160/204/43 152/196/43
f 80/102/64 72/94/64 132/175/64 140/183/64
f 88/111/75 86/109/75 146/190/75 148/192/75
f 66/88/76 68/90/76 128/171/76 126/169/76
f 87/110/102 95/118/102 155/199/102 147/191/102
f 75/97/101 67/89/101 127/170/101 135/178/101
f 89/112/71 88/111/71 148/192/71 149/193/71
f 68/90/72 69/91/72 129/172/72 128/171/72
f 90/113/67 89/112/67 149/193/67 150/194/67
f 69/91/68 70/92/68 130/173/68 129/172/68
f 91/114/100 92/115/100 152/196/100 151/195/100
f 72/94/99 71/93/99 131/174/99 132/175/99
f 93/116/65 91/114/65 151/195/65 153/197/65
f 71/93/66 73/95/66 133/176/66 131/174/66
